<svg xmlns="http://www.w3.org/2000/svg" xmlns:xlink="http://www.w3.org/1999/xlink" id="body_4" preserveAspectRatio="xMinYMin meet" viewBox="0 0 816 1056"><defs><clipPath id="1"><path d="M0 792L0 0L0 0L612 0L612 0L612 792L612 792L0 792z" /></clipPath><clipPath id="2"><path d="M28.8 28.79999L583.2 28.79999L583.2 28.79999L583.2 758.7888L583.2 758.7888L28.8 758.7888L28.8 758.7888L28.8 28.79999z" /></clipPath></defs><g transform="matrix(1.333333 0 0 1.333333 0 0)"><g><g clip-path="url(#1)"><g clip-path="url(#2)"><path transform="matrix(1 0 0 -1 0 792)" d="M40.31402 285.9438L571.6859 285.9438L571.6859 285.9438L571.6859 285.3682L571.6859 285.3682L40.31402 285.3682z" stroke="none" fill="#CCCCCC" fill-rule="winding" /><path transform="matrix(1 0 0 -1 0 792)" d="M40.31402 13.63721L571.6859 13.63721L571.6859 13.63721L571.6859 13.06152L571.6859 13.06152L40.31402 13.06152z" stroke="none" fill="#CCCCCC" fill-rule="winding" /><g transform="matrix(0.2776238 0 0 0.2772547 40.31401 66.79645)"><g transform="matrix(1 0 0 1 0 0)"><image x="0" y="0" xlink:href="img_12.png" width="1914" height="652" /></g></g><g transform="matrix(0.2783509 0 0 0.2782845 40.31401 284.9871)"><g transform="matrix(1 0 0 1 0 0)"><image x="0" y="0" xlink:href="img_13.png" width="1909" height="662" /></g></g><g transform="matrix(0.2771893 0 0 0.2763365 40.31401 561.8992)"><g transform="matrix(1 0 0 1 0 0)"><image x="0" y="0" xlink:href="img_14.png" width="1917" height="650" /></g></g></g></g></g></g></svg>