<svg xmlns="http://www.w3.org/2000/svg" xmlns:xlink="http://www.w3.org/1999/xlink" id="body_2" preserveAspectRatio="xMinYMin meet" viewBox="0 0 816 1056"><defs><clipPath id="1"><path d="M0 792L0 0L0 0L612 0L612 0L612 792L612 792L0 792z" /></clipPath><clipPath id="2"><path d="M28.8 28.79999L583.2 28.79999L583.2 28.79999L583.2 701.7944L583.2 701.7944L28.8 701.7944L28.8 701.7944L28.8 28.79999z" /></clipPath></defs><g transform="matrix(1.333333 0 0 1.333333 0 0)"><g><g clip-path="url(#1)"><g clip-path="url(#2)"><path transform="matrix(1 0 0 -1 0 792)" d="M40.31402 133.3831L571.6859 133.3831L571.6859 133.3831L571.6859 132.8074L571.6859 132.8074L40.31402 132.8074z" stroke="none" fill="#CCCCCC" fill-rule="winding" /><g transform="matrix(0.2767562 0 0 0.2764069 40.31401 28.80005)"><g transform="matrix(1 0 0 1 0 0)"><image x="0" y="0" xlink:href="img_04.png" width="1920" height="654" /></g></g><g transform="matrix(0.2782052 0 0 0.2778092 40.31401 234.3253)"><g transform="matrix(1 0 0 1 0 0)"><image x="0" y="0" xlink:href="img_05.png" width="1910" height="688" /></g></g><g transform="matrix(0.2767562 0 0 0.2763718 40.31401 441.5777)"><g transform="matrix(1 0 0 1 0 0)"><image x="0" y="0" xlink:href="img_06.png" width="1920" height="652" /></g></g></g></g></g></g></svg>