<svg xmlns="http://www.w3.org/2000/svg" xmlns:xlink="http://www.w3.org/1999/xlink" id="body_3" preserveAspectRatio="xMinYMin meet" viewBox="0 0 816 1056"><defs><clipPath id="1"><path d="M0 792L0 0L0 0L612 0L612 0L612 792L612 792L0 792z" /></clipPath><clipPath id="2"><path d="M28.8 28.79999L583.2 28.79999L583.2 28.79999L583.2 762.8187L583.2 762.8187L28.8 762.8187L28.8 762.8187L28.8 28.79999z" /></clipPath></defs><g transform="matrix(1.333333 0 0 1.333333 0 0)"><g><g clip-path="url(#1)"><g clip-path="url(#2)"><path transform="matrix(1 0 0 -1 0 792)" d="M40.31402 34.36243L571.6859 34.36243L571.6859 34.36243L571.6859 33.78674L571.6859 33.78674L40.31402 33.78674z" stroke="none" fill="#CCCCCC" fill-rule="winding" /><g transform="matrix(0.2776238 0 0 0.2769293 40.31401 28.79999)"><g transform="matrix(1 0 0 1 0 0)"><image x="0" y="0" xlink:href="img_08.png" width="1914" height="738" /></g></g><g transform="matrix(0.2767562 0 0 0.2760569 40.31401 270.5946)"><g transform="matrix(1 0 0 1 0 0)"><image x="0" y="0" xlink:href="img_09.png" width="1920" height="659" /></g></g><g transform="matrix(0.2783509 0 0 0.2781399 40.31401 489.9367)"><g transform="matrix(1 0 0 1 0 0)"><image x="0" y="0" xlink:href="img_10.png" width="1909" height="830" /></g></g></g></g></g></g></svg>