<svg xmlns="http://www.w3.org/2000/svg" xmlns:xlink="http://www.w3.org/1999/xlink" id="body_5" preserveAspectRatio="xMinYMin meet" viewBox="0 0 816 1056"><defs><clipPath id="1"><path d="M0 792L0 0L0 0L612 0L612 0L612 792L612 792L0 792z" /></clipPath><clipPath id="2"><path d="M28.8 28.79999L583.2 28.79999L583.2 28.79999L583.2 761.6673L583.2 761.6673L28.8 761.6673L28.8 761.6673L28.8 28.79999z" /></clipPath></defs><g transform="matrix(1.333333 0 0 1.333333 0 0)"><g><g clip-path="url(#1)"><g clip-path="url(#2)"><path transform="matrix(1 0 0 -1 0 792)" d="M40.31402 744.2014L571.6859 744.2014L571.6859 744.2014L571.6859 743.6257L571.6859 743.6257L40.31402 743.6257z" stroke="none" fill="#CCCCCC" fill-rule="winding" /><path transform="matrix(1 0 0 -1 0 792)" d="M40.31402 62.57153L571.6859 62.57153L571.6859 62.57153L571.6859 61.99585L571.6859 61.99585L40.31402 61.99585z" stroke="none" fill="#CCCCCC" fill-rule="winding" /><g transform="matrix(0.2769004 0 0 0.2766935 40.31401 90.9762)"><g transform="matrix(1 0 0 1 0 0)"><image x="0" y="0" xlink:href="img_16.png" width="1919" height="645" /></g></g><g transform="matrix(0.2767562 0 0 0.276083 40.31401 306.864)"><g transform="matrix(1 0 0 1 0 0)"><image x="0" y="0" xlink:href="img_17.png" width="1920" height="636" /></g></g><g transform="matrix(0.2770447 0 0 0.2762678 40.31401 507.2079)"><g transform="matrix(1 0 0 1 0 0)"><image x="0" y="0" xlink:href="img_18.png" width="1918" height="671" /></g></g></g></g></g></g></svg>