<svg xmlns="http://www.w3.org/2000/svg" xmlns:xlink="http://www.w3.org/1999/xlink" id="body_1" preserveAspectRatio="xMinYMin meet" viewBox="0 0 816 1056"><defs><clipPath id="1"><path d="M0 792L0 0L0 0L612 0L612 0L612 792L612 792L0 792z" /></clipPath><clipPath id="2"><path d="M28.8 28.79999L583.2 28.79999L583.2 28.79999L583.2 665.5252L583.2 665.5252L28.8 665.5252L28.8 665.5252L28.8 28.79999z" /></clipPath></defs><g transform="matrix(1.333333 0 0 1.333333 0 0)"><g><g clip-path="url(#1)"><g clip-path="url(#2)"><path transform="matrix(1 0 0 -1 0 792)" d="M40.31402 656.1196L571.6859 656.1196L571.6859 656.1196L571.6859 655.5439L571.6859 655.5439L40.31402 655.5439z" stroke="none" fill="#CCCCCC" fill-rule="winding" /><g transform="matrix(0.2796694 0 0 0.2790717 40.31401 211.8729)"><g transform="matrix(1 0 0 1 0 0)"><image x="0" y="0" xlink:href="img_01.png" width="1900" height="623" /></g></g><g transform="matrix(0.2779141 0 0 0.2778181 40.31401 410.4897)"><g transform="matrix(1 0 0 1 0 0)"><image x="0" y="0" xlink:href="img_02.png" width="1912" height="746" /></g></g></g></g></g></g></svg>